# xmcd
#
# Track frame offsets:
#	150
#	22164
#	38880
#	59425
#	81317
#	103822
#	122647
#	142130
#	162838
#	183799
#	200765
#	217176
#	240294
#	263691
#	288731
#
# Disc length: 4123 seconds
#
# Revision: 1
# Processed by: cddbd v1.5.1PL0 Copyright (c) Steve Scherf et al.
# Submitted via: CDex 1.50Beta5
#
DISCID=e610190f
DTITLE=沢田知可子 - BEST COLLECTION
DYEAR=1996
DGENRE=
TTITLE0=会いたい
TTITLE1=HAPPY EVER AFTER
TTITLE2=Still…
TTITLE3=I Love You
TTITLE4=Silent Rain
TTITLE5=Return to Forever
TTITLE6=片想い
TTITLE7=忘れられない
TTITLE8=COME INTO MY LIFE
TTITLE9=少年時代
TTITLE10=B.G.VACANCE
TTITLE11=ふたり
TTITLE12=魔法の鏡
TTITLE13=恋人と呼ばせて
TTITLE14=幸せになろう
EXTD=
EXTT0=
EXTT1=
EXTT2=
EXTT3=
EXTT4=
EXTT5=
EXTT6=
EXTT7=
EXTT8=
EXTT9=
EXTT10=
EXTT11=
EXTT12=
EXTT13=
EXTT14=
PLAYORDER=
